<?xml version="1.0" encoding="UTF-8"?>
<svg xmlns="http://www.w3.org/2000/svg" x="0px" y="0px" width="100" height="100" viewBox="0,0,256,256">
<defs><linearGradient x1="2.874" y1="5.771" x2="24.916" y2="31.217" gradientUnits="userSpaceOnUse" id="color-1_g6K6MWJPKeyk_gr1"><stop offset="0" stop-color="#c433ab"></stop><stop offset="1" stop-color="#6b21a3"></stop></linearGradient><linearGradient x1="20.478" y1="17.541" x2="43.542" y2="38.647" gradientUnits="userSpaceOnUse" id="color-2_g6K6MWJPKeyk_gr2"><stop offset="0" stop-color="#f0f0f0"></stop><stop offset="1" stop-color="#bbc1c4"></stop></linearGradient></defs><g fill="none" fill-rule="nonzero" stroke="none" stroke-width="1" stroke-linecap="butt" stroke-linejoin="miter" stroke-miterlimit="10" stroke-dasharray="" stroke-dashoffset="0" font-family="none" font-weight="none" font-size="none" text-anchor="none" style="mix-blend-mode: normal"><g transform="scale(5.33333,5.33333)"><path d="M18,6c-8.8,0 -16,6 -16,13.5c0,4.3 2.3,8 6,10.5l-2,6l6.3,-3.9c1.7,0.6 3.7,0.9 5.7,0.9c8.8,0 16,-6 16,-13.5c0,-7.5 -7.2,-13.5 -16,-13.5z" fill="url(#color-1_g6K6MWJPKeyk_gr1)"></path><path d="M19,29c0,1.371 0.283,2.684 0.779,3.912c7.97,-0.745 14.221,-6.425 14.221,-13.412c0,-0.845 -0.104,-1.668 -0.279,-2.469c-0.24,-0.01 -0.478,-0.031 -0.721,-0.031c-7.72,0 -14,5.383 -14,12z" fill="#000000" opacity="0.05"></path><path d="M19.5,29c0,1.35 0.289,2.641 0.793,3.846c7.721,-0.938 13.707,-6.511 13.707,-13.346c0,-0.67 -0.077,-1.322 -0.188,-1.965c-0.27,-0.014 -0.538,-0.035 -0.812,-0.035c-7.444,0 -13.5,5.159 -13.5,11.5z" fill="#000000" opacity="0.07"></path><path d="M46,29c0,-6.1 -5.8,-11 -13,-11c-7.2,0 -13,4.9 -13,11c0,6.1 5.8,11 13,11c1.8,0 3.5,-0.3 5,-0.8l5,2.8l-1.4,-4.8c2.7,-2 4.4,-4.9 4.4,-8.2z" fill="url(#color-2_g6K6MWJPKeyk_gr2)"></path><path d="M14,15c0,1.1 -0.9,2 -2,2c-1.1,0 -2,-0.9 -2,-2c0,-1.1 0.9,-2 2,-2c1.1,0 2,0.9 2,2zM24,13c-1.1,0 -2,0.9 -2,2c0,1.1 0.9,2 2,2c1.1,0 2,-0.9 2,-2c0,-1.1 -0.9,-2 -2,-2z" fill="#401f1f"></path><path d="M30,26.5c0,0.8 -0.7,1.5 -1.5,1.5c-0.8,0 -1.5,-0.7 -1.5,-1.5c0,-0.8 0.7,-1.5 1.5,-1.5c0.8,0 1.5,0.7 1.5,1.5zM37.5,25c-0.8,0 -1.5,0.7 -1.5,1.5c0,0.8 0.7,1.5 1.5,1.5c0.8,0 1.5,-0.7 1.5,-1.5c0,-0.8 -0.7,-1.5 -1.5,-1.5z" fill="#474747"></path></g></g>
</svg> 